<?xml version="1.0" encoding="UTF-8"?>
<svg version="1.1" xmlns="http://www.w3.org/2000/svg" width="288" height="288">
<path d="M0 0 C-0.01571045 1.4080188 -0.01571045 1.4080188 -0.03173828 2.84448242 C-0.44411839 43.64885677 0.64751595 86.02322214 14.7421875 124.8515625 C15.90844425 128.31740494 16.37355714 130.48322007 15 134 C10.82697587 142.02668417 5.59679212 149.0378226 -0.3125 155.85546875 C-2.20613012 157.80714722 -2.20613012 157.80714722 -2 160 C-3.57421875 161.515625 -3.57421875 161.515625 -5.6875 163.25 C-8.24634889 165.41897174 -10.33936811 167.40724173 -12.5 170 C-15.67462897 173.80955476 -19.19363185 176.83369078 -23 180 C-23.5775 180.48452637 -24.155 180.96905273 -24.75 181.46826172 C-32.84529007 188.24357884 -40.89502228 194.61520016 -50 200 C-51.14961655 200.71033492 -52.29797839 201.42270309 -53.4453125 202.13671875 C-67.35619147 210.73208853 -81.94819993 217.64975368 -97 224 C-97.85207031 224.39445313 -98.70414062 224.78890625 -99.58203125 225.1953125 C-104.63791057 226.877883 -108.76700238 225.997859 -113.5703125 223.98046875 C-114.62202637 223.54065674 -115.67374023 223.10084473 -116.75732422 222.64770508 C-117.86865723 222.1658374 -118.97999023 221.68396973 -120.125 221.1875 C-121.85194092 220.44632935 -121.85194092 220.44632935 -123.61376953 219.69018555 C-142.75914903 211.32087421 -160.01538118 200.74114252 -176.57128906 188.03540039 C-177.21807617 187.54160889 -177.86486328 187.04781738 -178.53125 186.5390625 C-179.39073242 185.87704834 -179.39073242 185.87704834 -180.26757812 185.20166016 C-182.00792129 183.93254937 -182.00792129 183.93254937 -184.10986328 182.9519043 C-186.49364552 181.75139191 -187.6950862 180.24992938 -189.375 178.1875 C-191.50528466 175.66288605 -193.44390993 173.63007506 -196 171.5 C-199.80886481 168.32594599 -202.84211179 164.81164696 -206 161 C-206.67023193 160.19828369 -206.67023193 160.19828369 -207.35400391 159.38037109 C-226.76152247 136.074679 -226.76152247 136.074679 -226.3125 128.75 C-225.81640625 126.578125 -225.81640625 126.578125 -225 124 C-224.4590073 122.19533002 -223.91802857 120.39065585 -223.37719727 118.5859375 C-222.95085735 117.16801293 -222.5201953 115.75138226 -222.08569336 114.3359375 C-217.8274506 100.15288807 -215.37519159 85.38661734 -213.25 70.75 C-213.13446777 69.95432617 -213.01893555 69.15865234 -212.89990234 68.33886719 C-210.84977567 53.33778857 -210.70947412 38.30149039 -210.4375 23.1875 C-210.39422103 20.93423822 -210.35060406 18.6809829 -210.30664062 16.42773438 C-210.20052851 10.9518914 -210.09859477 5.47598322 -210 0 C-139.66590037 -27.59202376 -70.41749848 -26.65335223 0 0 Z " fill="#FDFDFD" transform="translate(249,42)"/>
<path d="M0 0 C0 4 0 4 -1.50390625 5.859375 C-2.18324219 6.48328125 -2.86257812 7.1071875 -3.5625 7.75 C-6.21313183 10.27155758 -8.75252449 12.77742005 -11.125 15.5625 C-14.6001366 19.60354187 -18.22994884 23.48800364 -21.875 27.375 C-25.78880679 31.54996574 -29.68810905 35.7312532 -33.5 40 C-37.2734412 44.22400134 -41.12833772 48.36633784 -45 52.5 C-49.63446686 57.44875123 -54.21868419 62.43401836 -58.73828125 67.48828125 C-62.92998162 72.14331292 -67.19639373 76.72979818 -71.45166016 81.32666016 C-73.97037031 84.04870989 -76.4850327 86.7744926 -79 89.5 C-82.01098786 92.76239454 -85.02235528 96.02443595 -88.03515625 99.28515625 C-94.7074367 106.50763924 -101.3603053 113.7475577 -108 121 C-113.67520581 127.19894506 -119.35740782 133.3910341 -125.0625 139.5625 C-130.40792827 145.34533683 -135.71322664 151.16349578 -141 157 C-147.83286529 153.6914547 -152.18251018 148.71203339 -157 143 C-158.20076172 141.61361328 -158.20076172 141.61361328 -159.42578125 140.19921875 C-163.54145895 135.3840632 -167.54668606 130.5012049 -171.1875 125.3125 C-171.75855469 124.50425781 -172.32960937 123.69601563 -172.91796875 122.86328125 C-175.71770431 115.45459473 -171.99700922 106.37106448 -170.1875 99 C-168.032322 89.93891307 -166.15751721 80.88546722 -164.6875 71.6875 C-164.52854248 70.70587891 -164.36958496 69.72425781 -164.20581055 68.71289062 C-162.00997274 54.42968397 -161.74390474 40.10603139 -161.4375 25.6875 C-161.39420096 23.7714771 -161.35058352 21.85546137 -161.30664062 19.93945312 C-161.20075994 15.29304315 -161.09917504 10.64655774 -161 6 C-107.09888495 -13.94021976 -55.19885244 -16.06600746 0 0 Z " fill="#B0B0B0" transform="translate(216,51)"/>
<path d="M0 0 C0.33 0 0.66 0 1 0 C1.04487549 1.14662109 1.08975098 2.29324219 1.13598633 3.47460938 C2.96869819 52.62686302 2.96869819 52.62686302 13.75 100.4765625 C15.31938942 105.5488043 15.09280053 108.85874446 12.65234375 113.640625 C2.56269943 128.9934323 -9.33076224 142.87631506 -24 154 C-24.52867676 154.41427246 -25.05735352 154.82854492 -25.60205078 155.25537109 C-42.48186576 168.48205524 -66.32019366 185.21947604 -88 188 C-90.73477833 187.13530589 -93.20329529 186.21220313 -95.8125 185.0625 C-96.55951172 184.7425708 -97.30652344 184.4226416 -98.07617188 184.09301758 C-109.1089175 179.30046538 -119.72718826 173.85645372 -130.125 167.8125 C-130.82367188 167.40862061 -131.52234375 167.00474121 -132.2421875 166.58862305 C-136.51865528 164.05516811 -140.26195654 161.27806615 -144 158 C-141.82690268 153.65380536 -138.79902886 150.66411491 -135.328125 147.35546875 C-132.71493439 144.7115863 -130.30421801 141.93241958 -127.86914062 139.12524414 C-124.86957248 135.71468501 -121.74610279 132.42401252 -118.625 129.125 C-113.80860094 124.01224333 -109.04718972 118.86291778 -104.37109375 113.62109375 C-101.28609491 110.21082321 -98.14365948 106.85614181 -95 103.5 C-90.36551264 98.55126849 -85.78131528 93.56598105 -81.26171875 88.51171875 C-77.07140728 83.8582295 -72.80653832 79.27312358 -68.55273438 74.67773438 C-66.01233522 71.9328251 -63.47465958 69.18540353 -60.9375 66.4375 C-60.44088867 65.89963867 -59.94427734 65.36177734 -59.43261719 64.80761719 C-54.27428202 59.2180169 -49.13606885 53.61005357 -44 48 C-35.32321127 38.52246941 -26.61938937 29.07031901 -17.890625 19.640625 C-16.8645088 18.53131894 -15.83846628 17.42194472 -14.8125 16.3125 C-14.31782227 15.77802246 -13.82314453 15.24354492 -13.31347656 14.69287109 C-9.36788712 10.42088572 -5.49213125 6.09108209 -1.64453125 1.73046875 C-0.83048828 0.87388672 -0.83048828 0.87388672 0 0 Z " fill="#CCCCCC" transform="translate(231,61)"/>
<path d="M0 0 C-0.01571045 1.4080188 -0.01571045 1.4080188 -0.03173828 2.84448242 C-0.44411839 43.64885677 0.64751595 86.02322214 14.7421875 124.8515625 C15.90844425 128.31740494 16.37355714 130.48322007 15 134 C10.82697587 142.02668417 5.59679212 149.0378226 -0.3125 155.85546875 C-2.20613012 157.80714722 -2.20613012 157.80714722 -2 160 C-3.57421875 161.515625 -3.57421875 161.515625 -5.6875 163.25 C-8.24634889 165.41897174 -10.33936811 167.40724173 -12.5 170 C-15.67462897 173.80955476 -19.19363185 176.83369078 -23 180 C-23.5775 180.48452637 -24.155 180.96905273 -24.75 181.46826172 C-32.84529007 188.24357884 -40.89502228 194.61520016 -50 200 C-51.14961655 200.71033492 -52.29797839 201.42270309 -53.4453125 202.13671875 C-67.35619147 210.73208853 -81.94819993 217.64975368 -97 224 C-97.85207031 224.39445313 -98.70414062 224.78890625 -99.58203125 225.1953125 C-104.63791057 226.877883 -108.76700238 225.997859 -113.5703125 223.98046875 C-114.62202637 223.54065674 -115.67374023 223.10084473 -116.75732422 222.64770508 C-117.86865723 222.1658374 -118.97999023 221.68396973 -120.125 221.1875 C-121.85194092 220.44632935 -121.85194092 220.44632935 -123.61376953 219.69018555 C-142.75914903 211.32087421 -160.01538118 200.74114252 -176.57128906 188.03540039 C-177.21807617 187.54160889 -177.86486328 187.04781738 -178.53125 186.5390625 C-179.39073242 185.87704834 -179.39073242 185.87704834 -180.26757812 185.20166016 C-182.00792129 183.93254937 -182.00792129 183.93254937 -184.10986328 182.9519043 C-186.49364552 181.75139191 -187.6950862 180.24992938 -189.375 178.1875 C-191.50528466 175.66288605 -193.44390993 173.63007506 -196 171.5 C-199.80886481 168.32594599 -202.84211179 164.81164696 -206 161 C-206.67023193 160.19828369 -206.67023193 160.19828369 -207.35400391 159.38037109 C-226.76152247 136.074679 -226.76152247 136.074679 -226.3125 128.75 C-225.81640625 126.578125 -225.81640625 126.578125 -225 124 C-224.4590073 122.19533002 -223.91802857 120.39065585 -223.37719727 118.5859375 C-222.95085735 117.16801293 -222.5201953 115.75138226 -222.08569336 114.3359375 C-217.8274506 100.15288807 -215.37519159 85.38661734 -213.25 70.75 C-213.13446777 69.95432617 -213.01893555 69.15865234 -212.89990234 68.33886719 C-210.84977567 53.33778857 -210.70947412 38.30149039 -210.4375 23.1875 C-210.39422103 20.93423822 -210.35060406 18.6809829 -210.30664062 16.42773438 C-210.20052851 10.9518914 -210.09859477 5.47598322 -210 0 C-139.66590037 -27.59202376 -70.41749848 -26.65335223 0 0 Z M-122.9375 -13.6875 C-124.03795654 -13.54924805 -125.13841309 -13.41099609 -126.2722168 -13.26855469 C-129.5160595 -12.85473792 -132.75807938 -12.42857716 -136 -12 C-136.84272461 -11.89316895 -137.68544922 -11.78633789 -138.55371094 -11.67626953 C-159.6020309 -8.97081853 -182.88212359 -4.5589382 -202 5 C-202.0093457 5.96260742 -202.01869141 6.92521484 -202.02832031 7.91699219 C-202.45450009 45.67510799 -205.00637979 83.59122678 -216.20849609 119.88818359 C-217.7178508 124.96278886 -218.45112057 128.74832554 -217 134 C-207.1172648 152.23963242 -190.08888895 168.39630634 -174 181 C-172.99195313 181.81339844 -171.98390625 182.62679687 -170.9453125 183.46484375 C-163.06118002 189.76508859 -154.80719472 195.0834425 -146 200 C-144.90510254 200.61125732 -144.90510254 200.61125732 -143.78808594 201.23486328 C-134.99872945 206.09312306 -126.05595163 210.61424809 -116.875 214.6875 C-115.73949707 215.21452515 -115.73949707 215.21452515 -114.58105469 215.75219727 C-108.02965317 218.55467703 -103.02014704 218.4549489 -96.33203125 216.03442383 C-93.36561034 214.78962307 -90.46485467 213.45001278 -87.5625 212.0625 C-86.510625 211.56814453 -85.45875 211.07378906 -84.375 210.56445312 C-49.89181375 194.16084752 -16.67724621 170.76676516 4 138 C4.39179443 137.44803955 4.78358887 136.8960791 5.18725586 136.32739258 C7.34799532 133.0700355 8.02521643 131.2965324 7.69140625 127.37109375 C7.34114743 126.05270003 6.9630396 124.74149818 6.5625 123.4375 C6.15695698 121.93801181 5.75341231 120.43798215 5.3515625 118.9375 C5.13016602 118.14214844 4.90876953 117.34679687 4.68066406 116.52734375 C3.46893988 112.02814407 2.45990592 107.48279098 1.4375 102.9375 C1.11785278 101.52150513 1.11785278 101.52150513 0.79174805 100.0769043 C0.18803478 97.38598135 -0.40863244 94.69366102 -1 92 C-1.23033936 90.95126709 -1.23033936 90.95126709 -1.46533203 89.88134766 C-2.45500681 85.27649726 -3.27290656 80.65238818 -4 76 C-4.13148438 75.17902832 -4.26296875 74.35805664 -4.3984375 73.51220703 C-7.88180513 50.83334775 -7.72794792 27.89145407 -8 5 C-21.22341294 0.44865497 -34.34338089 -3.94681313 -48 -7 C-49.57007813 -7.37705078 -49.57007813 -7.37705078 -51.171875 -7.76171875 C-59.07562566 -9.58343689 -67.05226037 -10.86840287 -75.0625 -12.125 C-76.13870605 -12.29580078 -77.21491211 -12.46660156 -78.32373047 -12.64257812 C-93.39937252 -14.94392291 -107.81254004 -15.61298708 -122.9375 -13.6875 Z " fill="#7F7F7F" transform="translate(249,42)"/>
</svg>
